<?xml version="1.0" encoding="UTF-8" standalone="no"?>
<!DOCTYPE svg PUBLIC "-//W3C//DTD SVG 1.1//EN" "http://www.w3.org/Graphics/SVG/1.1/DTD/svg11.dtd">
<svg xmlns="http://www.w3.org/2000/svg" viewBox="VIEWBOX">
  <path d="M 6.9 49.7 C 6.9 49.1, 6.9 31.000000000000004, 6.9 31.000000000000004 C 6.9 17.5, 17.7 6.6, 31 6.6 L 42.2 6.6 L 36 12.8 C 34.7 14.100000000000001, 34.7 16.1, 36 17.3 C 36.6 17.900000000000002, 37.5 18.3, 38.5 18.3 C 39.4 18.3, 40.3 17.900000000000002, 41 17.3 L 57.9 0 L 31 0 C 13.9 0, 0 13.9, 0 31 L 0 31.5 L 0 56.7 L 6.9 50.300000000000004 L 6.9 49.7" style="fill: COLOR"></path>

  <path d="M 57.1 13.7 L 57.1 14.299999999999999 C 57.1 14.899999999999999, 57.1 33, 57.1 33 C 57.1 46.5, 46.3 57.4, 33 57.4 L 21.8 57.4 L 28 51.199999999999996 C 29.3 49.9, 29.3 47.9, 28 46.699999999999996 C 27.4 46.099999999999994, 26.5 45.699999999999996, 25.5 45.699999999999996 C 24.6 45.699999999999996, 23.7 46.099999999999994, 23 46.699999999999996 L 6.1 64 L 33 64 C 50.1 64, 64 50.1, 64 33 L 64 32.5 L 64 7.3 L 57.1 13.7" style="fill: COLOR"></path>
</svg>
